<svg id="Capa_1" data-name="Capa 1" xmlns="http://www.w3.org/2000/svg" viewBox="0 0 564 723"><defs><style>.cls-1{fill:#29abe2;}.cls-2{fill:#fff;}.cls-3{fill:#1a1a1a;}.cls-4,.cls-6{font-size:172.95px;font-family:MyriadPro-Regular, Myriad Pro;}.cls-5{letter-spacing:-0.01em;}.cls-6{fill:#00a99d;}.cls-7{fill:#333;}</style></defs><title>logotipo 5.0</title><ellipse class="cls-1" cx="264.26" cy="273.75" rx="264.26" ry="273.75"/><ellipse class="cls-2" cx="222.31" cy="358.29" rx="181.14" ry="181.35"/><polygon class="cls-2" points="562.71 184.18 338.64 271.57 315.39 202.78 539.46 115.39 562.71 184.18"/><ellipse cx="211.16" cy="363.02" rx="156.06" ry="169.6"/><ellipse class="cls-2" cx="256.24" cy="294.45" rx="102.75" ry="110.49"/><rect class="cls-2" x="357.74" y="193.71" width="182.53" height="88.92"/><rect x="269.24" y="256.5" width="259.36" height="291" rx="34.5"/><rect x="269.24" y="358.9" width="259.36" height="188.6"/><ellipse class="cls-3" cx="380.8" cy="532.47" rx="46.52" ry="49.53"/><rect x="484.13" y="283.04" width="79.87" height="15.92"/><rect x="545.89" y="283.04" width="18.11" height="65.45"/><ellipse cx="613.05" cy="560.71" rx="13.65" ry="67.64" transform="translate(-497.11 972.91) rotate(-75.01)"/><rect x="244.54" y="512.05" width="50.22" height="34.5"/><text class="cls-4" transform="translate(0 679.76) scale(1.02 1)">Glos<tspan class="cls-5" x="315.98" y="0">v</tspan><tspan x="397.44" y="0">el</tspan></text><text class="cls-6" transform="translate(9.32 672.26) scale(1.02 1)">Glos<tspan class="cls-5" x="315.98" y="0">v</tspan><tspan x="397.44" y="0">el</tspan></text><ellipse class="cls-7" cx="380.64" cy="532.16" rx="36.37" ry="36.16"/></svg>