<?xml version="1.0" encoding="UTF-8" ?>
<!DOCTYPE svg PUBLIC "-//W3C//DTD SVG 1.1//EN" "http://www.w3.org/Graphics/SVG/1.1/DTD/svg11.dtd">
<svg width="1074pt" height="461pt" viewBox="0 0 1074 461" version="1.1" xmlns="http://www.w3.org/2000/svg">
<g id="#ffffffff">
<path fill="#ffffff" opacity="1.00" d=" M 192.59 51.66 C 212.56 40.58 236.14 37.61 258.63 39.79 C 321.66 46.89 384.29 60.75 443.05 84.99 C 449.06 86.73 452.93 91.73 457.34 95.76 C 476.59 97.07 497.68 101.87 510.37 117.66 C 526.59 138.03 526.03 167.27 516.50 190.43 C 514.19 194.97 511.39 202.39 505.04 201.13 C 500.72 200.66 498.41 196.54 497.33 192.79 C 492.03 175.53 490.00 157.20 491.65 139.23 C 492.08 133.19 496.98 129.18 502.29 127.20 C 493.21 116.42 479.27 109.94 465.09 111.15 C 471.47 125.69 475.48 141.08 479.26 156.45 C 487.54 194.55 493.22 233.21 496.58 272.04 C 484.48 276.08 471.71 277.57 459.07 278.82 C 425.34 281.73 391.44 280.68 357.67 279.10 C 333.63 277.32 309.47 276.04 285.67 272.03 C 279.59 271.11 275.15 265.73 274.29 259.82 C 271.34 241.36 268.17 222.87 266.83 204.20 C 278.75 202.44 288.14 193.54 292.88 182.79 C 303.67 158.75 302.88 130.64 294.72 105.93 C 290.82 95.66 285.40 85.65 277.19 78.17 C 307.48 77.65 337.31 83.81 367.07 88.66 C 396.08 93.22 424.65 100.48 452.18 110.68 C 447.40 105.31 440.27 103.05 433.86 100.29 C 402.47 89.06 369.44 83.49 336.64 78.20 C 313.27 74.19 289.75 70.28 265.99 69.68 C 257.90 69.78 249.47 69.39 241.83 72.45 C 256.73 74.10 271.61 81.29 279.88 94.17 C 292.34 112.74 293.92 136.51 290.23 158.02 C 288.35 169.30 284.78 180.64 277.91 189.92 C 275.13 193.78 269.45 197.49 265.02 193.94 C 260.18 189.42 258.85 182.50 257.43 176.31 C 253.92 158.11 250.71 139.55 252.11 120.94 C 252.41 114.17 257.03 108.95 259.72 103.10 C 255.58 92.89 246.20 84.05 234.75 83.49 C 234.17 115.21 239.09 146.67 242.11 178.17 C 245.54 207.04 248.94 235.93 253.60 264.64 C 254.67 271.58 260.08 277.75 267.31 278.36 C 331.36 288.17 396.49 287.63 461.05 284.45 C 474.92 282.73 490.32 283.18 502.08 274.50 C 507.54 285.48 507.89 297.99 507.98 310.00 C 507.74 329.99 507.67 349.99 507.32 369.98 C 507.36 378.72 506.78 387.76 502.69 395.67 C 497.35 407.36 485.21 414.64 472.83 416.63 C 411.29 427.61 348.46 431.08 286.04 428.19 C 252.69 426.67 220.34 416.00 191.26 399.94 C 188.47 398.52 185.30 396.07 182.19 398.11 C 171.18 403.43 158.57 401.23 147.10 398.83 C 157.96 392.68 162.05 379.88 163.21 368.18 C 165.16 348.16 162.77 327.48 155.11 308.81 C 152.28 302.60 148.71 295.92 142.38 292.72 C 134.88 289.75 127.80 296.45 124.82 302.78 C 118.38 317.57 119.49 334.34 122.08 349.88 C 123.37 356.74 124.18 363.87 127.56 370.11 C 113.94 359.17 100.12 348.23 84.45 340.36 C 73.29 334.11 60.72 330.35 47.86 330.51 C 72.20 327.46 94.34 340.24 115.30 350.65 C 113.82 335.32 112.77 319.06 119.65 304.78 C 123.59 296.30 131.00 288.08 140.94 287.63 C 152.11 286.71 161.28 295.29 166.75 304.15 C 179.11 325.27 180.65 350.46 180.62 374.36 C 199.32 386.13 218.18 398.38 239.35 405.21 C 235.25 391.21 234.54 376.13 237.23 361.86 C 238.87 374.92 241.04 388.25 246.98 400.15 C 249.60 404.91 253.33 410.02 259.06 410.98 C 267.90 412.89 276.90 414.07 285.94 414.48 C 331.70 416.81 377.69 415.91 423.22 410.66 C 440.96 408.70 458.94 407.13 476.05 401.79 C 484.41 399.25 492.50 393.09 494.23 384.10 C 497.35 370.24 496.99 355.91 496.94 341.80 C 488.54 347.44 480.05 353.38 470.13 356.03 C 474.98 349.39 484.25 348.76 489.70 342.69 C 495.94 337.71 493.44 329.18 493.56 322.35 C 484.31 326.92 474.87 331.13 465.64 335.72 C 462.96 343.28 465.85 354.18 458.65 359.70 C 420.77 371.43 379.93 373.92 340.89 366.98 C 335.09 359.12 331.69 349.37 325.10 342.02 C 302.20 338.10 278.96 335.03 256.71 328.00 C 256.76 333.64 256.35 339.76 259.19 344.86 C 262.03 349.55 267.87 350.49 272.70 352.00 C 287.86 356.49 303.35 359.97 319.09 361.69 C 301.77 361.32 284.43 359.29 267.56 355.36 C 262.05 353.49 255.45 352.18 251.81 347.26 C 249.47 340.38 250.05 332.91 249.30 325.76 C 248.12 325.44 246.95 325.12 245.77 324.80 C 245.34 333.25 246.83 341.64 246.69 350.08 C 239.94 340.17 241.55 327.48 241.33 316.13 C 264.02 326.45 288.79 330.91 313.32 334.29 C 343.75 337.70 374.40 339.56 405.03 338.78 C 436.34 337.65 470.42 334.18 495.36 313.29 C 497.39 306.57 495.02 298.91 495.15 291.85 C 486.71 292.77 478.35 294.28 469.96 295.58 C 398.76 305.22 326.35 301.82 255.46 291.25 C 246.82 289.80 240.96 281.40 240.34 273.01 C 233.98 207.67 227.54 142.33 221.09 77.00 C 219.63 65.24 232.86 58.80 242.92 59.28 C 305.51 58.24 366.67 74.18 427.23 87.93 C 425.22 86.33 422.82 85.38 420.40 84.60 C 364.76 64.75 305.75 56.62 247.09 52.28 C 222.43 49.80 198.50 60.52 179.38 75.36 C 153.57 93.97 127.73 112.57 101.89 131.14 C 99.10 132.53 101.66 135.10 102.53 136.89 C 98.56 136.34 94.52 136.22 90.56 136.88 C 98.73 142.44 107.74 147.11 114.12 154.94 C 134.30 177.37 135.57 209.62 151.56 234.43 C 154.25 238.28 156.68 242.56 160.76 245.13 C 152.61 228.95 146.49 211.83 141.67 194.37 C 135.71 173.45 126.33 152.99 110.96 137.28 C 134.03 119.26 158.20 102.69 182.88 86.96 C 189.05 83.29 195.01 78.77 202.16 77.23 C 205.18 76.46 209.16 77.60 209.61 81.13 C 218.55 116.08 221.89 152.14 225.02 187.98 C 228.79 231.96 230.41 276.08 232.27 320.16 C 228.17 310.93 227.29 300.59 225.71 290.69 C 221.57 242.32 217.56 193.90 210.56 145.85 C 208.54 129.01 205.55 112.11 199.54 96.20 C 194.55 94.62 189.58 96.72 185.23 99.07 C 165.71 109.47 147.10 121.48 128.74 133.77 C 125.71 135.56 125.12 139.91 127.67 142.38 C 143.48 161.31 152.04 184.95 158.71 208.36 C 162.98 224.42 169.30 239.85 176.24 254.92 C 185.90 274.53 198.10 293.66 216.01 306.73 C 206.54 304.22 196.43 303.37 187.84 298.29 C 179.09 293.71 172.59 286.16 165.47 279.53 C 134.70 250.50 87.03 243.48 48.16 258.96 C 55.16 251.44 64.58 246.82 73.94 242.96 C 92.94 235.75 112.89 231.28 132.98 228.42 C 126.27 209.21 118.27 189.74 104.57 174.37 C 98.79 168.50 91.84 162.04 83.01 162.42 C 63.50 162.51 45.49 171.10 28.07 178.93 C 45.00 160.78 64.55 145.27 84.37 130.41 C 120.11 103.72 154.96 75.71 192.59 51.66 Z" />
<path fill="#ffffff" opacity="1.00" d=" M 188.44 106.50 C 191.62 105.02 197.76 103.12 198.77 107.98 C 206.01 130.82 207.76 154.88 210.76 178.53 C 215.16 211.07 216.03 243.99 220.87 276.47 C 214.02 275.35 207.67 272.15 202.92 267.08 C 184.06 248.42 173.70 223.08 165.83 198.21 C 160.37 178.51 153.47 158.61 140.34 142.59 C 136.96 139.29 140.48 135.41 143.56 133.64 C 158.14 124.00 172.90 114.51 188.44 106.50 Z" />
<path fill="#ffffff" opacity="1.00" d=" M 576.37 173.72 C 591.24 170.34 608.22 176.52 615.39 190.41 C 622.81 205.73 621.57 226.02 609.94 238.97 C 596.11 254.38 568.13 252.80 556.22 235.79 C 547.69 223.69 547.18 206.99 552.54 193.49 C 556.52 183.43 565.68 175.63 576.37 173.72 M 581.48 190.58 C 576.03 192.92 574.72 199.62 574.05 204.90 C 573.55 212.85 572.97 221.63 577.21 228.74 C 581.15 234.95 591.92 232.90 593.57 225.79 C 595.79 216.05 596.41 205.39 593.19 195.80 C 591.81 190.92 585.95 189.01 581.48 190.58 Z" />
<path fill="#ffffff" opacity="1.00" d=" M 764.67 180.67 C 772.74 173.21 784.59 172.22 795.02 173.39 C 805.48 174.41 815.10 181.68 818.37 191.76 C 812.36 193.75 806.33 195.66 800.16 197.06 C 796.44 191.36 789.29 188.21 782.73 190.82 C 779.66 191.68 779.13 196.72 782.24 197.85 C 792.09 202.28 804.03 201.36 812.91 208.10 C 822.88 215.80 822.90 232.40 813.62 240.66 C 803.56 250.11 788.29 250.74 775.41 248.27 C 765.04 246.11 756.21 237.77 753.95 227.35 C 760.83 225.99 767.71 224.58 774.69 223.77 C 777.91 232.01 788.37 234.77 795.84 230.87 C 798.80 228.65 796.79 224.06 793.54 223.39 C 783.70 220.09 772.33 219.92 764.02 213.01 C 754.81 204.68 755.82 188.89 764.67 180.67 Z" />
<path fill="#ffffff" opacity="1.00" d=" M 1006.65 178.68 C 1023.02 168.09 1050.94 171.27 1058.04 191.71 C 1051.84 193.67 1045.69 195.90 1039.28 197.06 C 1036.02 191.14 1028.93 188.46 1022.53 190.62 C 1018.99 191.55 1018.69 197.67 1022.48 198.41 C 1032.19 202.04 1043.51 201.55 1052.16 207.85 C 1062.19 215.50 1062.57 231.94 1053.41 240.41 C 1043.54 249.90 1028.54 250.77 1015.74 248.40 C 1005.21 246.63 996.20 238.36 993.61 228.01 C 999.58 225.06 1007.21 225.20 1013.87 223.69 C 1017.44 231.72 1027.38 234.70 1035.14 231.12 C 1038.07 229.12 1036.94 224.21 1033.45 223.57 C 1023.47 220.45 1012.33 219.75 1003.69 213.26 C 993.50 204.14 995.45 186.16 1006.65 178.68 Z" />
<path fill="#ffffff" opacity="1.00" d=" M 629.36 174.17 C 636.96 173.84 644.57 173.98 652.18 174.06 C 652.51 192.75 652.23 211.45 652.29 230.14 C 662.04 230.88 671.84 230.26 681.61 230.42 C 681.64 236.47 681.64 242.53 681.62 248.60 C 664.24 248.49 646.87 248.67 629.50 248.50 C 629.30 223.73 629.57 198.95 629.36 174.17 Z" />
<path fill="#ffffff" opacity="1.00" d=" M 688.20 174.09 C 695.88 173.91 703.57 173.96 711.25 174.05 C 711.85 191.13 710.89 208.27 711.70 225.33 C 712.20 233.17 722.44 234.01 727.84 230.74 C 731.16 228.74 731.17 224.45 731.30 221.03 C 731.36 205.40 731.31 189.77 731.29 174.14 C 737.23 173.89 743.19 173.92 749.14 174.07 C 749.46 189.71 749.16 205.37 749.29 221.02 C 749.39 228.32 748.38 236.47 742.80 241.76 C 735.73 248.48 725.38 249.91 716.02 249.42 C 707.63 249.01 698.49 246.75 692.86 240.07 C 688.80 235.41 688.24 228.93 688.20 223.02 C 688.21 206.71 688.20 190.40 688.20 174.09 Z" />
<path fill="#ffffff" opacity="1.00" d=" M 857.04 174.05 C 869.71 173.92 882.38 174.03 895.06 174.00 C 901.34 173.97 908.28 175.43 912.46 180.52 C 920.85 189.36 918.06 206.83 905.20 209.67 C 909.86 211.56 915.23 213.60 917.41 218.54 C 921.00 226.77 919.29 237.40 912.58 243.56 C 907.61 247.76 900.75 248.17 894.55 248.50 C 882.09 248.69 869.63 248.45 857.17 248.64 C 856.76 223.78 857.02 198.91 857.04 174.05 M 878.08 190.08 C 877.93 194.14 877.93 198.21 878.07 202.27 C 882.66 202.45 887.34 202.94 891.89 201.96 C 897.10 200.75 897.15 191.49 891.73 190.47 C 887.23 189.57 882.62 190.04 878.08 190.08 M 878.07 218.75 C 877.93 222.92 877.93 227.09 878.07 231.27 C 883.16 231.39 888.47 232.18 893.42 230.62 C 898.15 228.94 898.21 221.15 893.56 219.41 C 888.55 217.89 883.21 218.60 878.07 218.75 Z" />
<path fill="#ffffff" opacity="1.00" d=" M 927.82 174.06 C 935.51 173.94 943.21 173.94 950.90 174.06 C 951.15 191.05 950.58 208.07 951.16 225.04 C 951.47 235.83 971.09 234.57 970.65 224.02 C 971.07 207.37 970.53 190.71 970.90 174.07 C 976.85 173.92 982.80 173.90 988.75 174.12 C 988.70 190.70 988.76 207.28 988.71 223.86 C 988.74 230.89 986.74 238.49 980.96 242.99 C 972.91 249.33 961.99 250.16 952.15 249.12 C 944.29 248.32 936.00 245.36 931.32 238.64 C 927.54 233.23 927.63 226.32 927.66 219.99 C 927.81 204.68 927.47 189.36 927.82 174.06 Z" />
<path fill="#ffffff" opacity="1.00" d=" M 636.16 292.38 C 650.35 292.50 664.55 292.49 678.74 292.38 C 678.96 296.79 678.96 301.21 678.75 305.63 C 670.21 305.68 661.65 305.26 653.13 305.80 C 653.14 308.40 653.17 311.00 653.24 313.61 C 660.12 313.61 667.01 313.31 673.90 313.73 C 674.02 318.03 674.02 322.34 673.78 326.64 C 666.91 326.64 660.03 326.30 653.17 326.79 C 653.12 329.83 653.12 332.87 653.15 335.91 C 661.71 336.20 670.28 335.81 678.84 336.08 C 678.94 340.60 678.95 345.12 678.76 349.64 C 664.55 349.52 650.35 349.53 636.15 349.63 C 635.79 330.56 635.77 311.45 636.16 292.38 Z" />
<path fill="#ffffff" opacity="1.00" d=" M 796.16 292.38 C 807.25 292.67 818.37 292.13 829.46 292.66 C 838.06 293.02 847.02 299.70 846.47 308.99 C 847.13 316.07 842.26 321.53 836.65 325.00 C 839.94 333.24 843.43 341.39 846.78 349.61 C 840.32 349.56 833.86 349.61 827.40 349.57 C 824.45 342.34 821.92 334.96 819.09 327.69 C 817.21 327.54 815.34 327.41 813.48 327.26 C 813.27 334.61 813.67 341.96 813.28 349.30 C 807.53 349.61 801.76 349.62 796.01 349.29 C 795.97 330.32 795.68 311.34 796.16 292.38 M 813.66 304.71 C 813.45 308.24 813.45 311.78 813.66 315.32 C 817.57 315.40 821.70 316.03 825.45 314.57 C 828.77 313.16 828.76 308.60 827.08 305.93 C 822.96 303.75 818.11 304.65 813.66 304.71 Z" />
<path fill="#ffffff" opacity="1.00" d=" M 855.16 292.38 C 869.35 292.50 883.55 292.49 897.74 292.38 C 897.95 296.79 897.95 301.21 897.75 305.63 C 889.20 305.68 880.65 305.26 872.12 305.79 C 872.13 308.40 872.17 311.00 872.24 313.61 C 879.12 313.61 886.01 313.31 892.89 313.73 C 893.02 318.03 893.03 322.34 892.78 326.64 C 885.91 326.64 879.03 326.30 872.17 326.79 C 872.12 329.83 872.12 332.87 872.15 335.91 C 880.71 336.20 889.28 335.81 897.84 336.08 C 897.94 340.60 897.94 345.11 897.74 349.63 C 883.54 349.53 869.35 349.52 855.16 349.64 C 854.78 330.56 854.77 311.45 855.16 292.38 Z" />
<path fill="#ffffff" opacity="1.00" d=" M 908.92 295.88 C 921.18 287.84 942.83 290.04 947.99 305.59 C 942.57 306.68 935.76 312.11 931.16 306.81 C 927.47 303.13 917.06 303.26 919.17 310.50 C 926.92 313.56 935.82 313.49 942.98 318.02 C 952.38 324.14 951.57 339.49 942.40 345.46 C 928.51 354.66 903.59 352.22 898.59 333.89 C 903.57 332.18 908.83 331.62 913.99 330.74 C 917.50 337.14 925.73 339.49 932.05 335.70 C 931.73 333.80 931.74 331.28 929.52 330.58 C 922.19 327.78 913.66 327.79 907.21 322.84 C 898.64 316.32 899.97 301.48 908.92 295.88 Z" />
<path fill="#ffffff" opacity="1.00" d=" M 960.92 295.88 C 973.18 287.84 994.84 290.04 999.98 305.60 C 994.56 306.68 987.77 312.11 983.16 306.81 C 979.48 303.13 969.05 303.27 971.17 310.50 C 979.47 313.91 989.53 313.29 996.60 319.35 C 1004.76 326.31 1002.77 340.47 993.82 345.87 C 979.85 354.52 955.51 352.01 950.60 333.90 C 955.57 332.17 960.83 331.62 966.00 330.74 C 969.50 337.15 977.74 339.49 984.06 335.69 C 983.72 333.81 983.74 331.28 981.53 330.58 C 974.19 327.78 965.66 327.79 959.20 322.84 C 950.64 316.32 951.97 301.48 960.92 295.88 Z" />
<path fill="#ffffff" opacity="1.00" d=" M 680.68 292.77 C 687.27 292.71 694.12 291.74 700.57 293.16 C 703.88 297.61 706.05 302.80 709.24 307.35 C 712.84 302.98 714.88 297.57 718.44 293.19 C 723.27 291.72 728.57 292.71 733.57 292.77 C 729.10 301.92 722.73 309.97 717.82 318.87 C 723.80 329.34 730.67 339.26 736.87 349.60 C 730.10 349.53 723.33 349.71 716.57 349.45 C 712.83 343.73 709.88 337.54 706.00 331.92 C 701.82 337.39 699.55 344.22 694.83 349.24 C 689.87 349.87 684.84 349.49 679.86 349.27 C 685.01 339.18 692.30 330.26 697.26 320.12 C 692.55 310.55 685.55 302.27 680.68 292.77 Z" />
<path fill="#ffffff" opacity="1.00" d=" M 741.04 292.71 C 749.01 292.33 757.00 292.63 764.98 292.52 C 771.17 292.51 777.95 292.86 782.98 296.95 C 791.70 303.48 791.58 318.36 782.79 324.79 C 776.04 330.24 766.89 328.78 758.85 329.07 C 758.50 335.91 758.84 342.76 758.67 349.61 C 752.83 349.58 747.00 349.57 741.17 349.64 C 740.77 330.67 741.02 311.68 741.04 292.71 M 758.67 305.68 C 758.43 309.45 758.43 313.24 758.67 317.01 C 761.96 316.98 765.34 317.30 768.56 316.39 C 773.09 315.24 773.31 307.27 768.63 306.11 C 765.40 305.15 761.98 305.60 758.67 305.68 Z" />
<path fill="#ffffff" opacity="1.00" d=" M 135.26 311.28 C 137.13 308.66 141.07 308.53 143.31 310.74 C 147.33 314.52 148.89 320.03 150.87 325.00 C 148.57 321.09 146.74 314.44 141.19 314.76 C 136.87 316.77 135.67 322.12 134.74 326.38 C 133.11 338.94 133.72 352.51 140.11 363.76 C 141.47 366.32 144.73 368.90 147.62 366.97 C 150.79 364.29 151.49 359.93 152.85 356.22 C 151.93 361.96 151.04 368.54 146.36 372.54 C 143.27 374.96 138.99 372.75 137.32 369.69 C 130.57 358.82 129.21 345.57 129.47 333.04 C 129.84 325.57 130.49 317.41 135.26 311.28 Z" />
</g>
</svg>
